{
    "asset" : {
        "generator" : "Khronos glTF Blender I/O v1.6.16",
        "version" : "2.0"
    },
    "scene" : 0,
    "scenes" : [
        {
            "name" : "Scene",
            "nodes" : [
                0,
                1
            ]
        }
    ],
    "nodes" : [
        {
            "mesh" : 0,
            "name" : "Text.001",
            "rotation" : [
                0.7071068286895752,
                0,
                0,
                0.7071068286895752
            ],
            "scale" : [
                0.10587332397699356,
                0.10587332397699356,
                0.10587332397699356
            ],
            "translation" : [
                -0.17286281287670135,
                0,
                0.23826967179775238
            ]
        },
        {
            "mesh" : 1,
            "name" : "Cube",
            "scale" : [
                0.10000000149011612,
                0.10000000149011612,
                0.10000000149011612
            ],
            "translation" : [
                0,
                0.12515930831432343,
                0
            ]
        }
    ],
    "materials" : [
        {
            "doubleSided" : true,
            "name" : "Text",
            "pbrMetallicRoughness" : {
                "baseColorFactor" : [
                    0.0012141070328652859,
                    0.006995412055402994,
                    0.013702083379030228,
                    1
                ],
                "metallicFactor" : 0,
                "roughnessFactor" : 0.4000000059604645
            }
        },
        {
            "doubleSided" : true,
            "name" : "Material",
            "pbrMetallicRoughness" : {
                "baseColorFactor" : [
                    0.799103319644928,
                    0.0684780701994896,
                    0.05780545249581337,
                    1
                ],
                "metallicFactor" : 0,
                "roughnessFactor" : 0.5
            }
        }
    ],
    "meshes" : [
        {
            "name" : "Text.001",
            "primitives" : [
                {
                    "attributes" : {
                        "POSITION" : 0,
                        "NORMAL" : 1,
                        "TEXCOORD_0" : 2
                    },
                    "indices" : 3,
                    "material" : 0
                }
            ]
        },
        {
            "name" : "Cube",
            "primitives" : [
                {
                    "attributes" : {
                        "POSITION" : 4,
                        "NORMAL" : 5,
                        "TEXCOORD_0" : 6
                    },
                    "indices" : 7,
                    "material" : 1
                }
            ]
        }
    ],
    "accessors" : [
        {
            "bufferView" : 0,
            "componentType" : 5126,
            "count" : 691,
            "max" : [
                3.2120003700256348,
                0,
                0.23000000417232513
            ],
            "min" : [
                0.07000000029802322,
                0,
                -0.6820000410079956
            ],
            "type" : "VEC3"
        },
        {
            "bufferView" : 1,
            "componentType" : 5126,
            "count" : 691,
            "type" : "VEC3"
        },
        {
            "bufferView" : 2,
            "componentType" : 5126,
            "count" : 691,
            "type" : "VEC2"
        },
        {
            "bufferView" : 3,
            "componentType" : 5123,
            "count" : 1560,
            "type" : "SCALAR"
        },
        {
            "bufferView" : 4,
            "componentType" : 5126,
            "count" : 16,
            "max" : [
                1,
                1,
                1
            ],
            "min" : [
                -1,
                -1,
                -1
            ],
            "type" : "VEC3"
        },
        {
            "bufferView" : 5,
            "componentType" : 5126,
            "count" : 16,
            "type" : "VEC3"
        },
        {
            "bufferView" : 6,
            "componentType" : 5126,
            "count" : 16,
            "type" : "VEC2"
        },
        {
            "bufferView" : 7,
            "componentType" : 5123,
            "count" : 18,
            "type" : "SCALAR"
        }
    ],
    "bufferViews" : [
        {
            "buffer" : 0,
            "byteLength" : 8292,
            "byteOffset" : 0
        },
        {
            "buffer" : 0,
            "byteLength" : 8292,
            "byteOffset" : 8292
        },
        {
            "buffer" : 0,
            "byteLength" : 5528,
            "byteOffset" : 16584
        },
        {
            "buffer" : 0,
            "byteLength" : 3120,
            "byteOffset" : 22112
        },
        {
            "buffer" : 0,
            "byteLength" : 192,
            "byteOffset" : 25232
        },
        {
            "buffer" : 0,
            "byteLength" : 192,
            "byteOffset" : 25424
        },
        {
            "buffer" : 0,
            "byteLength" : 128,
            "byteOffset" : 25616
        },
        {
            "buffer" : 0,
            "byteLength" : 36,
            "byteOffset" : 25744
        }
    ],
    "buffers" : [
        {
            "byteLength" : 25780,
            "uri" : "pyramid_static.bin"
        }
    ]
}
